<svg id="Layer_1" data-name="Layer 1" xmlns="http://www.w3.org/2000/svg" viewBox="0 0 658.35 186.09"><defs><style>.cls-1{fill:#231f20}.cls-2{fill:#ec1c24}</style></defs><path class="cls-1" d="m658.35 46.97-11.83 60.15h-10.37l-21.89-37.67h-.18l-7.41 37.67h-12.94l11.73-60.15h9.96l22.24 38.36h.19l7.65-38.36h12.85zM534.98 46.97l-22.16 24.76-13.41-24.76h-10.15l-11.73 60.15h12.94l7.48-38.03h.18l11.71 21.45 19.93-22.13h.19l-7.55 38.71h12.94l11.82-60.15h-12.19z"/><path class="cls-1" d="m468.13 46.97-24.78 26.6 5.22-26.6h-13.03l-11.73 60.15h12.94l5.55-28.22 19.68 28.22h16.2l-22.33-31.46 27.73-28.69h-15.45zM467.28 172.29l3.35-16.76 20.3-.01 1.86-9.3h-20.3l2.98-15.46h24.96l1.86-9.31H464.3l-11.73 60.15h40.97l9.49-9.31h-35.75z"/><path class="cls-1" d="M417.58 50.78a39.9 39.9 0 0 0-10.06 1.09 36.54 36.54 0 0 0-27.32 36c0 12.47 8.21 26.07 25.34 26.07 13 0 19.48-5.77 24.7-8.93L425 97.14c-3.3 2.17-5.58 4-9.12 5.31a25.12 25.12 0 0 1-8.8 1.47c-7.49 0-13.57-6.37-13.51-16.46.06-12.69 7.77-26.81 21.94-26.81 6.89 0 9.12 2.6 11.54 5l6.54-7.65a21.73 21.73 0 0 0-16.01-7.22Z" transform="translate(-4.19 -5.3)"/><path class="cls-1" d="m411.04 121.45-1.86 9.31h16.9l-9.92 50.84h12.95l9.99-50.84h15.89l9.5-9.31h-53.45zM344.67 97.81l3.35-16.76h20.3l1.86-9.32h-20.3l2.98-15.45h24.95l1.87-9.31h-37.99l-11.73 60.15h42.27l9.5-9.31h-37.06z"/><path class="cls-1" d="m386.95 172.29 9.94-50.87h-12.92l-11.73 60.18h36.68l9.5-9.31h-31.47z"/><path class="cls-1" d="m369.24 126.75-7.91 40.6c-1.3 6.65-7.15 10.8-13.69 10.8s-10.53-5.07-9.4-10.8l8-40.6H333.3l-7.63 38.92C322.86 180 332 188.2 345.59 188.2c16.91 0 26.09-7.88 29-22.53l7.63-38.92ZM249.75 117.44a45.09 45.09 0 0 0-10.75.92 40.15 40.15 0 0 0-30.87 39.11c0 16.6 11.61 30.92 28.81 30.92 13.82 0 20.68-5.59 25.52-9.13l-4.85-8.16c-4.57 3.84-8.55 7.22-18 7.22-10.09 0-17.6-8.13-17.58-20.34 0-15.45 8.85-31 25.79-31 6.17 0 10.59 3.71 13.8 7l6.75-7.53c-3.49-3.45-10.72-9.01-18.62-9.01Z" transform="translate(-4.19 -5.3)"/><path class="cls-2" d="M174.32 34.57C161.23 15 134.79 5.3 112.12 5.3 53.43 5.3 4.19 53.8 4.19 112.66a86.55 86.55 0 0 0 6.06 32.12l-.05-.15a52.34 52.34 0 0 1-1.38-9.88 33.15 33.15 0 0 1 18.91-29.85 62.59 62.59 0 0 1 3.21-6.39c8.83-15.46 30.11-31.85 57-31.86 23.8 0 46.56 13.39 72.64 13.39a32.58 32.58 0 0 0 4.38-.28c.13-13.33-5.41-26.13-13.29-36.66S129 24.69 116.19 23.53c2.09-.13 4.17-.43 6.2-.45a47.53 47.53 0 0 1 48 47.73 58 58 0 0 1-.51 7.83c7.64-2.58 12.47-8.7 12.81-18.1.18-5.97-2.35-16.97-8.37-25.97Z" transform="translate(-4.19 -5.3)"/><path class="cls-2" d="M150.49 95c-24.91.06-49.89-14.8-78.86-14.84-22 0-29.55 7-37.59 18.9a26.43 26.43 0 0 0-2.27 4.12 36.14 36.14 0 0 1 11.76-2c24.91-.07 49.9 14.79 78.86 14.83 22 0 29.55-7 37.59-18.9a26.43 26.43 0 0 0 2.27-4.11 36.42 36.42 0 0 1-11.76 2Z" transform="translate(-4.19 -5.3)"/><path class="cls-2" d="M184.25 52.4c-.91-2.32-.43-.78-.43-.78s1.39 7.9 1.39 9.88a33.17 33.17 0 0 1-18.92 29.85 62.59 62.59 0 0 1-3.21 6.39c-8.83 15.46-30.11 31.85-57 31.86-23.81 0-46.56-13.39-72.65-13.39a34.31 34.31 0 0 0-4.38.28c-.13 13.34 5.41 26.13 13.29 36.66 8 10.69 22.67 18.41 35.46 19.57-2.09.13-4.17.43-6.2.45a47.53 47.53 0 0 1-48-47.73 58.09 58.09 0 0 1 .51-7.83c-7.64 2.59-12.47 8.7-12.81 18.11-.22 6 2.27 17 8.33 26 13.37 19.69 39.85 29.67 62.85 29.67 58.85 0 108-46.07 107.92-105.66a91.4 91.4 0 0 0-6.15-33.33Z" transform="translate(-4.19 -5.3)"/><path class="cls-1" d="M583.49 52.27h-8.18l-35.77 60.14h14l7.63-14.15h20.19l2.9 14.15h14ZM565.85 89l9.45-17.88h.37L579.36 89ZM538.65 159.48c6.19-.7 15.38-4.24 17.55-15.6 1.92-10-5.7-17.13-19.93-17.13h-19.55L505 186.9h12.94l5.35-27.18h.37l18.58 27.18H559Zm-13.8-7.78 3.08-15.64h4.71c9 0 10.83 3.52 10 7.82-1.1 5.48-4.48 7.82-12 7.82ZM320.35 75.92v-.19c3.17-1.49 10.9-3.55 12.66-13 2.38-12.79-7.72-18.25-23.83-18.25H288.9l-13.41 68h24.59c20.91 0 30.71-6.85 32.95-18.06 1.97-9.98-5.77-17.2-12.68-18.5ZM300 53.76h6c9.66 0 14.74 2.27 13.41 8.94-1.09 5.45-4.83 8.93-15.45 8.93h-7.55Zm19.83 38.36c-1.86 9.31-10.22 11-21.78 11h-7.75l4.28-22.16h7.73c10.12-.02 19.41 1.6 17.5 11.16ZM298.53 125.45a36.36 36.36 0 0 0-10.74 1.4c-14.87 4.6-24.61 18.83-24.61 35.47 0 12.42 7.89 25.88 24 25.88a36.75 36.75 0 0 0 9.51-1c15.56-4.19 25.84-18.74 25.84-35.83.03-12.46-7.87-25.92-24-25.92Zm-5.16 52.64a21.4 21.4 0 0 1-4.7.32c-6.3 0-12.83-6.75-12.83-17 0-9.84 5.25-22.31 15.3-25.46a19.57 19.57 0 0 1 5.92-.69c6.27 0 12.84 6.67 12.84 16.84 0 10.35-5.49 23.51-16.53 25.99Z" transform="translate(-4.19 -5.3)"/></svg>
