<svg width="180" height="42" viewBox="0 0 180 42" fill="none" xmlns="http://www.w3.org/2000/svg">
<g clip-path="url(#clip0_1_139)">
<path d="M71.033 37.2452C68.1149 37.2452 65.9473 35.1528 65.9473 32.5083V32.4816C65.9473 29.8638 68.0686 27.718 71.1163 27.718C72.9876 27.718 74.1084 28.2967 75.0255 29.1426L73.636 30.6296C72.8764 29.9885 72.0983 29.5878 71.0978 29.5878C69.4304 29.5878 68.2261 30.8789 68.2261 32.4549V32.4816C68.2261 34.0576 69.4026 35.3754 71.0978 35.3754C72.2279 35.3754 72.9227 34.9569 73.7009 34.298L75.0904 35.598C74.0714 36.613 72.9412 37.2452 71.0237 37.2452H71.033Z" fill="black"/>
<path d="M82.6309 27.8783V31.3864H78.6105V27.8783H76.4336V37.085H78.6105V33.2563H82.6309V37.085H84.8171V27.8783H82.6309Z" fill="black"/>
<path d="M93.4415 37.085L88.643 31.2351V37.085H86.4938V27.8783H88.504L93.1543 33.5501V27.8783H95.3034V37.085H93.4415Z" fill="black"/>
<path d="M145.234 37.2452C142.149 37.2452 140.019 35.2329 140.019 32.5083V32.4816C140.019 29.8638 142.214 27.718 145.215 27.718C147.003 27.718 148.069 28.1098 149.236 28.8577L148.013 30.3447C147.161 29.7926 146.568 29.57 145.141 29.5878C143.557 29.6145 142.297 30.8878 142.297 32.4549V32.4816C142.297 34.1645 143.539 35.4021 145.299 35.4021C146.095 35.4021 146.8 35.2151 147.355 34.8501V33.5323H145.966V31.7871H149.458V35.785C148.439 36.5863 147.04 37.2452 145.225 37.2452H145.234Z" fill="black"/>
<path d="M117.091 37.085L112.293 31.2351V37.085H110.144V27.8783H112.154L116.804 33.5501V27.8783H118.953V37.085H117.091Z" fill="black"/>
<path d="M153.312 37.085V33.0515L149.995 27.8694H152.543L154.627 31.5111L156.721 27.8694H159.203L155.887 33.0248V37.085H153.312Z" fill="black"/>
<path d="M108.736 29.7481V27.8783H100.797V37.085H108.736V35.2151H102.992V33.3809H108.133V31.52H102.992V29.7481H108.736Z" fill="black"/>
<path d="M128.55 29.7481V27.8783H120.611V37.085H128.55V35.2151H122.807V33.3809H127.939V31.52H122.807V29.7481H128.55Z" fill="black"/>
<path d="M138.935 37.085L137.036 33.5412C138.073 33.0782 138.796 32.0453 138.796 30.8344C138.796 29.196 137.471 27.8783 135.831 27.8783H130.181V37.085H132.358V33.7905H134.988L136.749 37.085H138.935ZM132.358 29.7481H135.591C136.193 29.7481 136.684 30.2378 136.684 30.8344C136.684 31.4398 136.193 31.9207 135.591 31.9207H132.358V29.7392V29.7481Z" fill="black"/>
<path d="M79.9074 17.9058H79.1663C78.907 16.9709 78.6754 16.2764 78.2956 15.4394H76.2205C76.5911 16.3654 76.8597 17.1935 77.0265 17.9058H75.535V15.0298H79.4535V13.258H75.535V11.2011H79.5369V9.41144H69.2358V11.2011H73.0987V13.258H69.4304V15.0298H73.0987V17.9058H68.9209V19.7311H79.9074V17.9058Z" fill="black"/>
<path d="M67.6795 6.59779C66.7069 6.59779 65.9565 7.26558 65.9565 8.12036V20.9599C65.9565 21.9304 66.8644 22.527 67.7073 22.527H81.2599C81.649 22.527 82.0844 22.3667 82.4179 22.0996C82.8069 21.7879 83.0107 21.3695 83.0107 20.9065V8.17379C83.0107 7.22106 82.2789 6.59779 81.1395 6.59779H67.6795ZM80.5281 8.4231V20.675H68.3836V8.4231H80.5281Z" fill="black"/>
<path d="M109.588 7.63065L110.653 9.96348H107.374L109.579 6.72244H106.892L104.66 9.9902C104.382 10.4087 104.335 10.7916 104.521 11.1388C104.743 11.5039 105.095 11.6998 105.577 11.7176H112.265C112.265 11.7176 112.923 11.6641 113.201 11.2011C113.395 10.8806 113.367 10.4532 113.117 9.93677C112.802 9.27788 111.904 7.63065 111.904 7.63065H109.588Z" fill="black"/>
<path d="M112.719 12.7771C112.487 12.5456 112.145 12.421 111.691 12.421H106.225C104.928 12.421 104.91 13.4984 104.91 13.5073V22.4825H107.226V19.4373H110.69V20.6393H108.347V22.4468H111.542C112.515 22.4468 113.006 22.0105 113.006 21.1469V13.5162C113.006 13.5162 113.025 13.0888 112.71 12.7771H112.719ZM110.69 14.1573V15.1723H107.226V14.1573H110.69ZM110.69 16.8017V17.8168H107.226V16.8017H110.69Z" fill="black"/>
<path d="M115.526 13.9614H121.751V12.1182H116.536V11.4861C120.009 10.284 121.973 7.22106 121.973 7.22106H119.379C119.379 7.22106 118.221 8.83268 116.536 9.40253V6.71354H114.118V12.7771C114.118 13.5251 114.636 13.9525 115.526 13.9525V13.9614Z" fill="black"/>
<path d="M116.536 17.3449V14.4867H114.136V21.0311C114.136 21.966 114.618 22.4557 115.526 22.4557H121.751V20.5948H116.536V19.5531C119.741 18.3866 122.001 14.8963 122.001 14.8963H119.398C119.398 14.8963 118.296 16.588 116.536 17.336V17.3449Z" fill="black"/>
<path d="M87.7073 9.44705H100.102V12.1004H102.436V9.27788C102.436 8.33406 101.797 7.72859 100.806 7.72859H95.2942V6.45532H92.6541V7.72859H87.2812C86.114 7.72859 85.3914 8.32515 85.3914 9.27788V12.1004H87.7073V9.44705ZM99.6851 16.9887L101.908 12.7504H99.472L97.8324 15.6086C97.5174 15.0387 97.2303 14.3531 96.9802 13.6052H95.5999C95.3776 13.249 95.0533 12.8217 94.7013 12.421C94.7754 12.323 94.8681 12.1628 94.9977 11.9402L99.3238 11.9313V10.2306H88.4947V11.9313H92.089C90.2919 13.2847 86.4753 13.8901 85.6786 14.0059V15.9291C86.3919 15.8401 90.1436 15.3059 93.0895 13.6675C93.1821 13.7833 93.3396 14.0237 93.4229 14.1483C91.4591 16.0182 86.6883 16.873 85.6786 17.0421V18.9921C86.4104 18.8853 90.7365 18.1551 94.0807 16.0004C94.1177 16.2141 94.127 16.41 94.1548 16.8552C91.8204 18.3777 89.4118 19.3305 85.6786 20.1585V22.1174C86.5031 21.9749 91.1719 21.0133 94.1548 19.0544V20.2832C94.1548 20.6037 93.8491 20.8976 93.5156 20.8886H90.7828V22.6694H94.2752C95.6925 22.6694 96.4243 22.0016 96.4243 20.675V17.3627C97.4711 19.1257 99.4165 21.414 102.622 22.3311V20.2921C101.677 19.9181 99.5369 18.5469 98.6383 16.9887H99.6851Z" fill="black"/>
<path d="M128.282 14.825L126.29 10.845H123.668L125.512 14.825H128.282Z" fill="black"/>
<path d="M128.171 10.2217L126.364 6.59779H123.78L125.428 10.2217H128.171Z" fill="black"/>
<path d="M128.059 15.6798H125.549V15.7778C125.549 15.7778 124.975 18.8585 123.372 22.5448H126.021C127.485 19.4195 128.041 15.8401 128.041 15.7956L128.059 15.6709V15.6798Z" fill="black"/>
<path d="M140.723 14.9675V10.6491C140.723 9.87444 140.185 9.44705 139.213 9.44705H137.267V8.54775H141.343V6.77587H130.292C129.273 6.77587 128.708 7.24777 128.708 8.11146V15.0476C128.754 16.962 128.467 19.9003 127.346 22.3934L127.272 22.5537H129.764L129.792 22.4825C130.644 20.4078 131.061 17.8079 131.061 15.3504V8.54775H135.007V9.44705H133.321C132.376 9.44705 131.867 10.0614 131.867 10.6491V14.9497C131.867 16.0894 132.561 16.2497 133.312 16.2497H135.22V20.8174H134.034V22.5893H136.072C137.017 22.5893 137.601 22.0907 137.601 21.2982V16.2586H139.157C139.944 16.2586 140.713 16.1606 140.713 14.9764L140.723 14.9675ZM138.407 11.0943V12.0381H134.201V11.0943H138.407ZM138.407 13.6675V14.6114H134.201V13.6675H138.407Z" fill="black"/>
<path d="M134.322 17.0065H132.246C131.95 19.3126 130.801 22.064 130.801 22.064H132.969C132.969 22.064 134.025 19.7846 134.322 17.0065Z" fill="black"/>
<path d="M140.222 17.0065H138.138C138.231 17.4873 138.768 20.0695 139.657 22.064H141.844C140.982 19.7667 140.371 17.5853 140.222 17.0065Z" fill="black"/>
<path d="M160.862 17.3894H153.469V16.5435H159.954V14.8696H153.812V14.086H159.398V12.4833H153.812V11.8155H159.454V10.1772H153.812V9.47377H159.954V7.76421H153.831C153.571 6.65121 153.506 6.52655 153.506 6.52655H151.07C151.144 6.80258 151.274 7.25668 151.394 7.76421H148.059C148.421 7.18545 148.523 6.80258 148.56 6.52655H146.216C146.114 6.87381 145.54 8.54775 143.585 9.73198V11.8778C144.169 11.7265 144.53 11.4683 144.771 11.308V15.3949C144.771 15.7956 144.891 16.0983 145.123 16.3031C145.493 16.6147 145.994 16.5524 146.003 16.5524H151.014V17.3983H143.715V19.2058H146.309C145.975 20.1229 144.613 22.3756 144.613 22.3756H147.309C147.309 22.3756 148.597 20.1674 148.912 19.2058H151.014V22.5893H153.469V19.2058H155.572C155.98 20.3099 157.23 22.3756 157.23 22.3756H159.917C159.917 22.3756 158.49 20.025 158.175 19.2058H160.871V17.3983L160.862 17.3894ZM151.394 14.8607H147.124V14.0771H151.394V14.8607ZM151.394 12.4744H147.124V11.8066H151.394V12.4744ZM151.394 10.1683H147.124V9.46486H151.394V10.1683Z" fill="black"/>
<path d="M180 8.48543C180 7.37243 179.305 6.74025 178.092 6.74025H164.91C163.705 6.74025 163.048 7.34572 163.048 8.44981V20.8976C163.048 22.0729 163.909 22.4825 164.975 22.4825H177.999C179.092 22.4825 180 22.0373 180 20.8976V8.48543ZM177.545 20.6126H165.456V8.55666H177.545V20.6126Z" fill="black"/>
<path d="M174.896 10.9518V9.03747H172.441V10.9518H166.29V12.8128H170.375C169.671 14.2018 167.939 16.2497 166.253 17.2113V19.3394C169.264 18.1373 171.144 15.6887 172.441 13.4895V18.2798H169.217V20.1229H172.83C174.118 20.1229 174.896 19.4462 174.896 18.3243V12.8128H176.878V10.9518H174.896Z" fill="black"/>
<path d="M58.4713 20.5682L52.5519 14.8785L37.0725 29.757L35.7015 28.4393L50.7455 13.9792C50.9863 13.7477 50.9863 13.3649 50.7455 13.1333L44.8168 7.43481L29.3374 22.3133L27.9664 20.9955L43.0475 6.49989C43.2605 6.2862 43.2605 5.94785 43.0475 5.74306L37.0725 0L15.229 20.9955L22.9733 28.4304L21.6023 29.7481L12.487 20.9866L27.4847 6.57113C27.7441 6.32182 27.7441 5.91223 27.4847 5.66292L21.5931 0L0.175756 20.586C-0.0650959 20.8175 -0.0650959 21.1825 0.175756 21.414L21.5931 42L29.3374 34.5652L37.0725 42L58.4713 21.4318C58.7121 21.2003 58.7121 20.8175 58.4713 20.5771V20.5682Z" fill="#C11920"/>
<path d="M49.1063 18.1909L37.073 29.7571L35.702 28.4394L47.1146 17.4697C43.8539 16.3478 40.4356 15.5286 36.9155 15.0389L29.3379 22.3223L27.9669 21.0045L34.4606 14.7629C32.7747 14.6026 31.0609 14.5225 29.3286 14.5225C26.6237 14.5225 23.9743 14.7183 21.3713 15.0923L15.2203 21.0045L22.9646 28.4394L21.5936 29.7571L12.4782 20.9956L18.0086 15.68C11.9317 16.9532 6.24388 19.2416 1.14893 22.3401L21.5936 41.9912L29.3379 34.5564L37.073 41.9912L57.5176 22.3401C54.8682 20.7285 52.0521 19.3306 49.1063 18.1909Z" fill="url(#paint0_linear_1_139)"/>
</g>
<defs>
<linearGradient id="paint0_linear_1_139" x1="29.3286" y1="13.819" x2="29.3286" y2="30.6208" gradientUnits="userSpaceOnUse">
<stop stop-color="#F6AB00"/>
<stop offset="0.5" stop-color="#D84C14"/>
<stop offset="0.75" stop-color="#CC2A1C"/>
<stop offset="1" stop-color="#C11920"/>
</linearGradient>
<clipPath id="clip0_1_139">
<rect width="180" height="42" fill="white"/>
</clipPath>
</defs>
</svg>
