<svg version="1.2" xmlns="http://www.w3.org/2000/svg" viewBox="0 0 1550 557" width="1550" height="557"><style>.a{fill:#691103}.b{fill:#c4944c}</style><path class="a" d="m278.2 139v133.2c38 1.2 71 33.3 72.2 75.3 1.7 55.4-70.5 109.1-154.8 55.2-50.1-32.2-87.2-119.4-38.6-196.6 26.6-42.4 75.3-67.1 121.2-67.1v-139c-153.6 0-278.1 124.5-278.1 278 0 153.6 124.5 278.1 278.1 278.1 115.3 0 211.5-100.2 211.5-208.6 0-121.1-99.6-208.5-211.5-208.5z"/><path class="b" d="m278.2 0v139c5 0 11.6 0.3 11.9 0.3 107 6 199.6 91.5 199.6 208.1 0 108.4-96.1 208.5-211.3 208.7 153.6-0.2 278-124.6 278-278.1 0-153.6-124.5-278-278.2-278z"/><path fill-rule="evenodd" class="a" d="m837.8 347.4c5.9 0 12.9-0.7 20.6-5.6 16.3 3.9 26.9 9.9 29.3 11.4-1.5 7-1.6 9.8-1.6 16.7v84.3c-2.9 0.8-15.3 3.8-34.7 4v-12.4h-48.3v23.9c0 7.5 0.8 18.7 2.5 26.9-9.7 3.6-28.1 3.7-39.8 3.7v-54.5h-47.1v8.4c-2.9 0.7-15.2 3.6-34.7 4v-114.1l36 3.3h45.8v-41.3l39.8 3.6c-1.4 7-2.5 18.2-2.5 26.7v11m-37.3 22.1h-47.1v54.9h47.1zm85.6 0h-48.3v54.7h48.3zm258.9 105.8c0.8 2.5 3.6 11.7 4.4 23.3h-195l-1.5-22h37.1l-0.6-1.3c0-0.1-4.4-10.2-14.8-24l23.2-10c11.6 15.6 17.3 26.3 21.4 34.7l0.3 0.6h13.5v-47.2h-64l-1.4-21.1h65.4v-24.7h-44.1l-0.4-5.1-1.3 1c-8.3 5.9-16.7 11.4-24.4 15.9q-0.5 0.3-1.1 0.6c-2-0.5-13.1-3.9-23.1-13.9 20.4-12.5 52.4-36.3 59.9-47.6l0.2-0.2-1.5-21.3h50.1c10.6 0 17-0.7 22.5-4.3 16 4.7 21.9 8.8 23.2 9.8 0.7 5.8 3.8 10.7 6.2 13.9 4.7 6.6 25.8 27.3 65.3 44.2v7.2c-3.5 0.5-17.6 3-26.4 11.9q-0.8-0.3-1.7-0.9c-8.1-4-16.1-8.8-23.7-14.1l-0.9-0.6-0.5 1.1c-0.3 0.7-0.7 1.4-1 2.4h-40.7v24.7h32.5c13.6 0 25.3-1 28.3-1.3 0.7 2.7 2.9 12.3 3.6 22.4h-64.4v47.2h15.8l0.3-0.4c0.1-0.2 7.4-11.4 15.2-34.5l26.1 7.5c-5.7 16.5-10.8 25.9-10.8 26l-0.8 1.4h6.3c10.4 0 20.5-1 23.3-1.3zm-55.6-113.4l-1.6-1.5c-9.2-9.2-16.5-18.5-19.8-25.7l-0.3-0.4h-32.5l-0.3 0.4c-4.1 6.9-12.3 15.8-23.5 25.6l-1.8 1.6zm436.8-49.1c15.2 0 19.9-0.4 25.1-4.5 20.3 6.8 30.6 14.9 32.8 16.8-0.6 1.8-2.3 7.3-2.3 17.6v137.6c0 12.7-8 20.3-21.7 20.3h-44.1c-3.4-6.3-4.1-15.6-4.3-18.6 5.7 0.4 15.7 0.9 22.5 0.9 5.8 0 9-3 9-8.5v-141.8h-137.3l-1.3-19.8z"/><path fill-rule="evenodd" class="a" d="m1492.4 349.1c0.8 2.8 3.5 12.5 4.6 22h-142.4l-1.3-19.2h94.2c29.4 0 41.7-2.1 44.9-2.8zm-4.9 50.2c-1.6 6.4-2 10-2 19.3v51.7c-2.5 0.8-13.2 3.6-31.4 3.7v-5.3h-53.7v7.7c-2.7 0.7-13.7 3.3-33.1 4.5v-92.5l34 3.3h36.2c12.8 0 18.2-1.1 23.6-4.6 14.6 3.7 24.3 10.6 26.4 12.2zm-33.4 11.8h-53.7v37.6h53.7zm-107.8-10.9v8.9c-12.8 4.4-23.4 14.3-26.1 16.9-31.9-25.4-52.3-53.2-66.5-90.3l-0.2-0.6h-44.1l-1.5-22.4h35.5c7.3 0 12.4-0.5 16.4-3.5 15.6 4.1 22.5 9.2 23.9 10.3 0.1 7 1.7 12.4 4.5 19.1 7 17.2 29.8 44.5 58.1 61.6zm-139.9-51.1c-7.9 21.3-24.3 51.9-57.7 78l-0.3 0.2c-5.1-0.9-15.4-10.7-19.8-15.3 24-20.5 40-44.9 48.7-74.5z"/><path fill-rule="evenodd" class="a" d="m1255 431.4c2.5 3.8 12.3 18.6 19 31.3l0.6 1.3-72.4 1 1.5-1.5c3.2-3.3 31.1-32.5 44.2-70.5l-31.2-12.5c-8 26.4-26.6 57.1-51.1 84.8l-0.3 0.3h-4.5c0.9 8.1 3.6 26.8 7.3 31.4 42.9-5.9 87.7-8.7 117.5-7.2h0.6l0.2 0.5c2.4 5.1 4.9 10.5 5.7 12.2h0.4c9.5 0 26.5-10.1 30-12.3-2.5-5-18.2-36-43.8-69.8m-374.7-204.4c0 20.8-1.8 38.3-2.4 43.8h51.4c-0.8-5.9-2.8-24.7-2.4-43.9v-78.9c0-16.8-0.1-37.7 2.4-60h-51.4c2.5 22.2 2.5 41.7 2.4 59.1zm-199.5 14.7c15.1 14.6 43.1 31.9 91.2 31.9 23.6 0 45.1-4.6 65.6-14.1 0.1-3.7 0-17.7-6.2-35.2-14.8 11.2-29.2 15.8-49.5 15.8-45.8 0-75.4-24.6-75.4-62.6 0-27.3 23.4-65.7 75.4-65.7 17.9 0 34.7 5.2 47.8 14.5l4.8-31.3c-14.6-5.8-39.8-11.8-62.5-11.8-38 0-69.6 11.1-91.2 31.9-17.9 17.1-28.1 40.2-28.1 63.3 0 23.1 10.2 46.2 28.1 63.3z"/><path fill-rule="evenodd" class="a" d="m988 167.5c0-23.1 10.2-46.2 28.1-63.2 21.7-20.9 53.2-32.1 91.2-32.1 22.7 0 47.9 6.2 62.5 11.9l-4.8 31.4c-13-9.4-29.9-14.5-47.8-14.5-52 0-75.3 38.3-75.3 65.5 0 38.1 29.5 62.6 75.3 62.6 20.4 0 34.8-4.5 49.6-15.8 6.2 17.5 6.2 31.6 6.2 35.3-20.6 9.5-42 14.1-65.7 14.1-48 0-76.1-17.3-91.2-32-17.9-17.1-28.1-40.1-28.1-63.2zm389 45.8c6.3 17.5 6.4 31.6 6.3 35.3-20.4 9.5-41.9 14.1-65.6 14.1-48.1 0-76.2-17.3-91.3-32-17.8-17.1-28-40.1-28-63.2 0-23.1 10.2-46.1 28-63.2 21.7-20.9 53.2-32.1 91.3-32.1 22.7 0 48 6.2 62.4 11.9l-4.8 31.4c-13-9.4-29.8-14.5-47.6-14.5-52.1 0-75.6 38.3-75.6 65.5 0 38.1 29.7 62.6 75.6 62.6 20.3 0 34.7-4.5 49.3-15.8z"/></svg>