<?xml version="1.0" encoding="UTF-8" standalone="no"?>
<svg
   xmlns:dc="http://purl.org/dc/elements/1.1/"
   xmlns:cc="http://creativecommons.org/ns#"
   xmlns:rdf="http://www.w3.org/1999/02/22-rdf-syntax-ns#"
   xmlns:svg="http://www.w3.org/2000/svg"
   xmlns="http://www.w3.org/2000/svg"
   xmlns:sodipodi="http://sodipodi.sourceforge.net/DTD/sodipodi-0.dtd"
   xmlns:inkscape="http://www.inkscape.org/namespaces/inkscape"
   width="297.54669"
   height="45.405933"
   viewBox="0 0 78.725894 12.013654"
   version="1.1"
   id="svg20633"
   inkscape:version="1.0.1 (c497b03c, 2020-09-10)"
   sodipodi:docname="danaher.svg">
  <defs
     id="defs20627">
    <clipPath
       id="clip3-9">
      <path
         d="M 192.09375,609.44141 H 251 v 33.30468 h -58.90625 z m 0,0"
         id="path20674" />
    </clipPath>
    <clipPath
       id="clip4-8">
      <path
         d="m 398,623 h 16.50391 v 12 H 398 Z m 0,0"
         id="path20677" />
    </clipPath>
  </defs>
  <sodipodi:namedview
     id="base"
     pagecolor="#00ffff"
     bordercolor="#666666"
     borderopacity="1.0"
     inkscape:pageopacity="0"
     inkscape:pageshadow="2"
     inkscape:zoom="0.35"
     inkscape:cx="411.63049"
     inkscape:cy="256.98868"
     inkscape:document-units="px"
     inkscape:current-layer="layer1"
     inkscape:document-rotation="0"
     showgrid="false"
     units="px"
     fit-margin-top="0.5"
     lock-margins="true"
     fit-margin-left="0.5"
     fit-margin-right="0.5"
     fit-margin-bottom="0.5"
     inkscape:window-width="1440"
     inkscape:window-height="872"
     inkscape:window-x="0"
     inkscape:window-y="28"
     inkscape:window-maximized="0" />
  <metadata
     id="metadata20630">
    <rdf:RDF>
      <cc:Work
         rdf:about="">
        <dc:format>image/svg+xml</dc:format>
        <dc:type
           rdf:resource="http://purl.org/dc/dcmitype/StillImage" />
        <dc:title></dc:title>
      </cc:Work>
    </rdf:RDF>
  </metadata>
  <g
     inkscape:label="Layer 1"
     inkscape:groupmode="layer"
     id="layer1"
     transform="translate(3.077235,-80.171745)">
    <g
       id="g20850"
       transform="translate(-44.836861,-79.585094)">
      <g
         clip-path="url(#clip3-9)"
         clip-rule="nonzero"
         id="g20730"
         transform="matrix(0.35277778,0,0,0.35277778,-25.874536,-55.108257)">
        <path
           style="fill:#145199;fill-opacity:1;fill-rule:nonzero;stroke:none"
           d="m 249.75391,616.04687 c -2.01172,-6.69921 -15.33985,-8.625 -29.76954,-4.28515 -0.68359,0.19531 -1.34765,0.41797 -2.01171,0.64453 12.90234,-2.99219 24.11328,-1.01953 25.88671,4.89453 1.95313,6.48438 -8.16406,15.25391 -22.59375,19.58594 -0.33593,0.0977 -0.65625,0.1914 -0.98437,0.28515 l 6.72266,-23.23046 -0.0312,0.004 0.0156,-0.004 -1.76172,0.12109 c -3.29687,0.32812 -6.80469,1.01562 -10.39453,2.08984 -14.42969,4.33985 -24.5,13.28125 -22.48047,19.99219 2.01172,6.69922 15.34375,8.61719 29.77735,4.28125 0.67968,-0.20312 1.35156,-0.42187 2.01171,-0.64062 -12.90625,2.98437 -24.11718,1.01953 -25.89453,-4.89454 -1.94922,-6.49218 8.16797,-15.25781 22.60157,-19.59375 0.30468,-0.0898 0.60937,-0.17968 0.91015,-0.26562 l -6.63281,23.20703 1.76172,-0.11328 c 3.29687,-0.32813 6.80469,-1.01953 10.39062,-2.09375 14.42969,-4.33594 24.49219,-13.28516 22.47657,-19.98438"
           id="path20728" />
      </g>
      <path
         style="fill:#211e1e;fill-opacity:1;fill-rule:nonzero;stroke:none;stroke-width:0.352778"
         d="m 66.655216,168.14634 c 0.16812,0.0179 0.376206,0.0248 0.622875,0.0248 0.770322,0 1.451074,-0.16399 1.886532,-0.47267 0.453376,-0.31557 0.690397,-0.74552 0.690397,-1.25953 0,-0.64768 -0.571884,-1.00046 -1.728057,-1.00046 -0.276987,0 -0.483694,0.0124 -0.63252,0.0303 z m -0.403764,-3.31281 c 0.571884,-0.0606 1.17409,-0.0909 1.796961,-0.0909 1.076248,0 1.915474,0.12678 2.458421,0.41203 0.563618,0.27285 0.888834,0.678 0.888834,1.25402 0,0.79926 -0.542946,1.51997 -1.36288,1.92649 -0.770322,0.38172 -1.74735,0.54433 -3.188779,0.54433 -0.80064,0 -1.492416,-0.0427 -1.82728,-0.0785 z m 0,0"
         id="path20732" />
      <path
         style="fill:#211e1e;fill-opacity:1;fill-rule:nonzero;stroke:none;stroke-width:0.352778"
         d="m 77.201342,167.12245 -0.128157,-0.87781 c -0.02893,-0.22462 -0.05926,-0.55121 -0.08819,-0.79926 h -0.0303 c -0.16812,0.24805 -0.355533,0.56362 -0.533298,0.79926 l -0.651813,0.87781 z m -1.856218,0.66697 -0.779967,1.05971 h -1.519978 l 3.248036,-4.08175 h 1.827279 l 0.770326,4.08175 h -1.49104 l -0.139182,-1.05971 z m 0,0"
         id="path20734" />
      <path
         style="fill:#211e1e;fill-opacity:1;fill-rule:nonzero;stroke:none;stroke-width:0.352778"
         d="m 81.783319,168.84913 1.263664,-4.08313 h 1.668801 l 0.879189,1.55719 c 0.267339,0.5209 0.443728,0.94533 0.602203,1.3932 h 0.0303 c 0.02893,-0.41755 0.128157,-0.86541 0.305926,-1.46486 l 0.454751,-1.48553 h 1.332562 l -1.263661,4.08313 h -1.471743 l -0.928797,-1.62884 c -0.294901,-0.5581 -0.472669,-0.92742 -0.650434,-1.42351 h -0.0303 c -0.0689,0.39963 -0.227376,0.97427 -0.424438,1.62333 l -0.445107,1.42902 z m 0,0"
         id="path20736" />
      <path
         style="fill:#211e1e;fill-opacity:1;fill-rule:nonzero;stroke:none;stroke-width:0.352778"
         d="m 94.225629,167.12245 -0.128161,-0.87781 c -0.0303,-0.22462 -0.05925,-0.55121 -0.08957,-0.79926 h -0.02893 c -0.168123,0.24805 -0.355536,0.56362 -0.533301,0.79926 l -0.651813,0.87781 z m -1.856218,0.66697 -0.779971,1.05971 h -1.521354 l 3.249415,-4.08175 h 1.8259 l 0.770322,4.08175 h -1.491036 l -0.137806,-1.05971 z m 0,0"
         id="path20738" />
      <path
         style="fill:#211e1e;fill-opacity:1;fill-rule:nonzero;stroke:none;stroke-width:0.352778"
         d="m 101.4934,164.76738 -0.49472,1.58612 h 2.4102 l 0.49333,-1.58612 h 1.43178 l -1.26366,4.08175 h -1.42213 l 0.52365,-1.71979 h -2.41983 l -0.52228,1.71979 h -1.422135 l 1.263665,-4.08175 z m 0,0"
         id="path20740" />
      <path
         style="fill:#211e1e;fill-opacity:1;fill-rule:nonzero;stroke:none;stroke-width:0.352778"
         d="m 111.88105,167.11143 h -2.36058 l -0.30592,0.99356 h 2.65686 l -0.23703,0.74414 h -4.07899 l 1.26504,-4.08175 h 3.93981 l -0.23702,0.74415 h -2.50803 l -0.27699,0.86678 h 2.37988 z m 0,0"
         id="path20742" />
      <g
         clip-path="url(#clip4-8)"
         clip-rule="nonzero"
         id="g20746"
         transform="matrix(0.35277778,0,0,0.35277778,-25.874536,-55.108257)">
        <path
           style="fill:#211e1e;fill-opacity:1;fill-rule:nonzero;stroke:none"
           d="m 404.875,628.41797 h 1.65234 c 2.1836,0 3.77735,-0.80469 3.77735,-1.9375 0,-0.92969 -1.25782,-1.33985 -2.88282,-1.33985 -0.7539,0 -1.23046,0.0352 -1.5664,0.0859 z m -2.46094,-4.92578 c 1.25781,-0.19141 3.16016,-0.29297 5.03906,-0.29297 1.78907,0 3.63672,0.15625 4.95313,0.66797 1.23047,0.44922 2.09766,1.16797 2.09766,2.25 0,1.71875 -1.84766,2.78125 -4.28125,3.26562 v 0.0469 c 1.11718,0.3125 1.62109,1.0664 1.78906,2.11328 0.2539,1.30469 0.39453,2.8164 0.73047,3.29687 h -4.14453 c -0.16797,-0.30859 -0.36329,-1.30468 -0.53125,-2.73047 -0.19532,-1.40625 -0.98047,-1.83593 -2.57422,-1.83593 h -1.23047 l -1.40235,4.5664 h -3.97265 z m 0,0"
           id="path20744" />
      </g>
    </g>
  </g>
</svg>
