<svg class="style-module-scss-module__pdbarG__Logo" width="91" height="40" viewBox="0 0 91 40" fill="none" xmlns="http://www.w3.org/2000/svg"><path d="M13.6416 0C22.2977 3.18667e-05 29.3418 7.12551 29.3418 15.8848C29.3417 24.6439 22.2977 31.7715 13.6416 31.7715C8.75248 31.7715 4.23031 29.5275 1.23145 25.6182C0.761326 25.004 0.871647 24.1204 1.47852 23.6445C2.08541 23.1688 2.95841 23.2795 3.42871 23.8936C5.89678 27.114 9.61727 28.959 13.6396 28.959C20.7638 28.9588 26.5576 23.0957 26.5576 15.8867C26.5576 8.67773 20.7615 2.81464 13.6396 2.81445C9.61951 2.81445 5.89678 4.65977 3.42871 7.87793C2.95841 8.4918 2.08536 8.60257 1.47852 8.12695C0.871692 7.65113 0.761448 6.76748 1.23145 6.15332C4.23031 2.24394 8.75473 0 13.6416 0ZM85.3838 17.8291C85.6525 17.428 86.2396 17.4306 86.5039 17.834L90.8838 24.5029L90.8867 24.5059C91.1842 24.9591 90.8616 25.5635 90.3242 25.5635H87.2871C87.0587 25.5634 86.8438 25.4458 86.7207 25.251L83.8945 20.793C83.749 20.5641 83.7533 20.2696 83.9033 20.043L85.3838 17.8291ZM68.9268 6.11914C69.3008 6.11914 69.6035 6.42524 69.6035 6.80371V8.7207C69.6035 9.09917 69.3008 9.40527 68.9268 9.40527H60.9941C60.6201 9.40527 60.3174 9.71137 60.3174 10.0898V13.3193C60.3175 13.6977 60.6202 14.0039 60.9941 14.0039H67.6543C68.0282 14.0039 68.3308 14.3092 68.3311 14.6875V16.6074C68.3311 16.9859 68.0283 17.292 67.6543 17.292H60.9941C60.6201 17.292 60.3174 17.5981 60.3174 17.9766V24.8633C60.3174 25.2417 60.0155 25.5477 59.6416 25.5479H57.1152C56.7412 25.5479 56.4385 25.2418 56.4385 24.8633V6.80566C56.4385 6.42719 56.7412 6.12109 57.1152 6.12109H68.9248L68.9268 6.11914ZM78.7646 6.11914C78.9975 6.11917 79.2128 6.2411 79.3359 6.44043L82.3994 11.4062C82.6659 11.8368 83.2839 11.8342 83.5459 11.4014L86.541 6.44727C86.6642 6.24582 86.8812 6.12109 87.1162 6.12109H89.9697L89.9717 6.11914C90.5068 6.11916 90.8272 6.72159 90.5342 7.1748L78.8428 25.1807C78.7174 25.3733 78.5045 25.4893 78.2783 25.4893H75.2549C74.7197 25.4891 74.3971 24.8858 74.6904 24.4326L80.3096 15.751C80.4529 15.5267 80.4551 15.2344 80.3096 15.0078L75.293 7.17285C75.0042 6.71743 75.3244 6.11942 75.8594 6.11914H78.7646ZM42.5391 6.11914C44.1337 6.11914 45.3482 6.24157 46.1836 6.48633C47.3054 6.82399 48.2686 7.41727 49.0703 8.27148H49.0684C49.8679 9.12588 50.4767 10.1734 50.8955 11.4131C51.3121 12.6505 51.5225 14.1759 51.5225 15.9912C51.5224 17.5843 51.3233 18.9578 50.9336 20.1113C50.4543 21.5209 49.7709 22.6604 48.8818 23.5352C48.2122 24.1947 47.3072 24.7074 46.165 25.0791C45.314 25.351 44.1718 25.4873 42.7432 25.4873H37.0859C36.1946 25.4873 35.4717 24.7545 35.4717 23.8525C35.4718 22.9507 36.1947 22.2188 37.0859 22.2188H39.3369V22.2256H42.2236C43.3008 22.2256 44.0825 22.1647 44.5596 22.04C45.1867 21.8814 45.709 21.6135 46.1211 21.2305C46.5375 20.8542 46.8709 20.233 47.1328 19.3652C47.397 18.4973 47.5254 17.3143 47.5254 15.8164C47.5254 14.3186 47.397 13.1675 47.1328 12.3652C46.8708 11.5675 46.5077 10.939 46.0352 10.4902C45.5671 10.0417 44.969 9.73867 44.248 9.58008C43.7083 9.45773 42.6515 9.39357 41.0752 9.39355L39.3389 9.39648H37.0947C36.2013 9.39636 35.4757 8.66186 35.4756 7.75781C35.4756 6.85363 36.2012 6.11926 37.0947 6.11914H42.5391ZM13.5225 19.123C13.7285 18.9146 14.0625 18.9146 14.2686 19.123L16.6602 21.5439C16.8662 21.7525 16.8662 22.0894 16.6602 22.2979L15.4082 23.5625C14.7094 24.2672 13.5806 24.2673 12.8818 23.5625L11.3818 22.0439C11.176 21.8355 11.176 21.4985 11.3818 21.29L13.5254 19.123H13.5225ZM1.39062 10.4316C2.1587 10.4317 2.78108 11.0617 2.78125 11.8389V19.9346C2.78118 20.7119 2.15877 21.3418 1.39062 21.3418C0.622473 21.3418 6.62771e-05 20.7119 0 19.9346V11.8389C0.00017413 11.0617 0.622539 10.4316 1.39062 10.4316ZM36.7705 10.7578C37.5229 10.758 38.1338 11.3229 38.1338 12.0186V19.7305C38.1338 20.4261 37.5229 20.9901 36.7705 20.9902C36.018 20.9902 35.4063 20.4262 35.4062 19.7305V12.0186C35.4062 11.3228 36.018 10.7578 36.7705 10.7578ZM19.4873 13.0898C19.6933 12.8818 20.0265 12.8818 20.2324 13.0898L21.7334 14.6084C22.4299 15.3155 22.4299 16.458 21.7334 17.165L18.4639 20.4756H18.4658C18.2598 20.6841 17.9258 20.6841 17.7197 20.4756L15.3281 18.0557C15.1221 17.8472 15.1221 17.5093 15.3281 17.3008L19.4873 13.0898ZM12.8848 8.21094C13.5835 7.50388 14.7124 7.50386 15.4111 8.21094C15.617 8.41946 15.6171 8.75739 15.4111 8.96582L9.84766 14.5947L9.92383 14.6719L9.89648 14.6973L12.4697 17.3008C12.6758 17.5093 12.6758 17.8472 12.4697 18.0557L10.3271 20.2227C10.1212 20.431 9.78709 20.4309 9.58105 20.2227L6.93359 17.543C6.03143 16.6274 6.0313 15.1456 6.93359 14.2324L12.8848 8.21094ZM16.4648 10.0322C16.6703 9.82422 17.0034 9.82428 17.209 10.0322L18.4297 11.2676C18.6352 11.4755 18.636 11.8125 18.4307 12.0205L14.2695 16.2324C14.064 16.4404 13.73 16.4404 13.5244 16.2324L12.3037 14.9971C12.0982 14.7891 12.0982 14.4521 12.3037 14.2441L16.4648 10.0322Z" fill="black"></path><path d="M74.4442 36.44C74.6782 36.44 74.8888 36.4817 75.076 36.565C75.2632 36.6484 75.4208 36.7548 75.5487 36.8844C75.6765 37.0139 75.7689 37.1479 75.8251 37.2867L75.5399 37.4117C75.4463 37.205 75.3034 37.0382 75.1132 36.9117C74.926 36.7854 74.703 36.7223 74.4442 36.7223C74.1792 36.7223 73.9422 36.7854 73.7333 36.9117C73.5274 37.0382 73.3663 37.2148 73.2509 37.44C73.1356 37.6621 73.078 37.9213 73.078 38.2174C73.078 38.5135 73.1355 38.7744 73.2509 38.9996C73.3663 39.2248 73.5274 39.4014 73.7333 39.5279C73.9422 39.6512 74.1792 39.7125 74.4442 39.7125C74.7029 39.7125 74.9261 39.6511 75.1132 39.5279C75.3034 39.4014 75.4463 39.2346 75.5399 39.0279L75.8251 39.1529C75.7689 39.2885 75.6764 39.4209 75.5487 39.5504C75.4208 39.6799 75.2632 39.7882 75.076 39.8746C74.8889 39.9579 74.6782 39.9996 74.4442 39.9996C74.204 39.9996 73.9819 39.9571 73.7792 39.8707C73.5766 39.7812 73.3988 39.656 73.246 39.4957C73.0962 39.3353 72.9796 39.1462 72.8954 38.9303C72.8143 38.7143 72.7733 38.4765 72.7733 38.2174C72.7733 37.9614 72.8143 37.7253 72.8954 37.5094C72.9795 37.2905 73.0964 37.1022 73.246 36.9449C73.3987 36.7846 73.5766 36.6602 73.7792 36.5738C73.982 36.4843 74.204 36.4401 74.4442 36.44ZM3.98816 39.9439H3.66003L3.34167 39.065H1.75476L1.4325 39.9439H1.10925L2.39148 36.4957H2.70496L3.98816 39.9439ZM16.7714 36.4957C17.1146 36.4957 17.4114 36.5666 17.661 36.7086C17.9136 36.8474 18.1087 37.0462 18.246 37.3053C18.3832 37.5613 18.452 37.8657 18.452 38.2174C18.452 38.566 18.3832 38.8703 18.246 39.1295C18.1087 39.3885 17.9136 39.5891 17.661 39.731C17.4114 39.873 17.1145 39.9439 16.7714 39.9439H15.6434V36.4957H16.7714ZM31.2606 39.5553L32.3846 36.4957H32.7118L31.4159 39.9439H31.1063L29.8104 36.4957H30.1327L31.2606 39.5553ZM46.6307 39.9439H46.3026L45.9843 39.065H44.3973L44.0751 39.9439H43.7518L45.0341 36.4957H45.3475L46.6307 39.9439ZM60.5565 39.3502V36.4957H60.8612V39.9439H60.6034L58.5917 37.0836V39.9439H58.287V36.4957H58.5448L60.5565 39.3502ZM89.8905 36.773H87.995V38.0738H89.7968V38.3521H87.995V39.6666H89.8905V39.9439H87.6903V36.4957H89.8905V36.773ZM15.9481 39.6666H16.7675C17.0449 39.6665 17.2855 39.6062 17.4882 39.4859C17.6939 39.3656 17.8525 39.1969 17.9647 38.981C18.0801 38.762 18.1385 38.5073 18.1385 38.2174C18.1385 37.9243 18.0801 37.6697 17.9647 37.4537C17.8525 37.2379 17.6939 37.0709 17.4882 36.9537C17.2823 36.8334 17.0418 36.7731 16.7675 36.773H15.9481V39.6666ZM1.85339 38.7867H3.23914L2.54578 36.8814L1.85339 38.7867ZM44.496 38.7867H45.8817L45.1884 36.8814L44.496 38.7867Z" fill="black"></path></svg>
