<svg width="85" height="24" viewBox="0 0 85 24" fill="none" xmlns="http://www.w3.org/2000/svg">
<path d="M78.207 10.001H83.7076V8H78.207C76.8262 8 75.707 9.11918 75.707 10.5C75.707 11.8807 76.8262 12.9999 78.207 12.9999H79.4145H81.2076C81.4831 12.9999 81.7083 13.2234 81.7083 13.5006C81.7083 13.7778 81.4848 14.0013 81.2076 14.0013H75.707V16.0023H81.2076C82.5884 16.0023 83.7076 14.8831 83.7076 13.5023C83.7076 12.1216 82.5884 11.0024 81.2076 11.0024H80.0001H78.207C77.9315 11.0024 77.7063 10.7789 77.7063 10.5017C77.7063 10.2245 77.9298 10.001 78.207 10.001Z" fill="#253746"/>
<path d="M37.181 12.0003C37.181 9.79138 35.3897 8 33.1808 8H32.7806C30.5717 8 28.7803 9.79138 28.7803 12.0003C28.7803 14.2092 30.5717 16.0006 32.7806 16.0006H33.1808C35.3897 16.0006 37.181 14.2092 37.181 12.0003ZM33.1808 14.0013H32.7806C31.6752 14.0013 30.7796 13.1056 30.7796 12.0003C30.7796 10.895 31.6752 9.99928 32.7806 9.99928H33.1808C34.2861 9.99928 35.1818 10.895 35.1818 12.0003C35.1818 13.1056 34.2861 14.0013 33.1808 14.0013Z" fill="#253746"/>
<path d="M25.1803 14.0011H21.18C20.0747 14.0011 19.179 13.1054 19.179 12.0001C19.179 10.8947 20.0747 9.99906 21.18 9.99906H25.1803V7.99805H21.18C18.9711 7.99805 17.1797 9.78943 17.1797 11.9983C17.1797 14.2072 18.9711 15.9986 21.18 15.9986H25.1803V13.9976V14.0011Z" fill="#253746"/>
<path d="M12.1793 14.0011H8.179C7.07368 14.0011 6.17799 13.1054 6.17799 12.0001C6.17799 10.8947 7.07368 9.99906 8.179 9.99906H12.1793L13.5791 7.99805H8.179C5.97009 7.99805 4.17871 9.78943 4.17871 11.9983C4.17871 14.2072 5.97009 15.9986 8.179 15.9986H13.5791L12.1793 13.9976V14.0011Z" fill="#253746"/>
<path d="M11.7786 11.002C11.7682 11.002 11.7578 11.002 11.7474 11.002H8.77796C8.2253 11.002 7.77832 11.4489 7.77832 12.0016C7.77832 12.5543 8.2253 13.0012 8.77796 13.0012H11.7474C11.7578 13.0012 11.7682 13.0012 11.7786 13.0012C12.3313 13.0012 12.7782 12.5543 12.7782 12.0016C12.7782 11.4489 12.3313 11.002 11.7786 11.002Z" fill="#253746"/>
<path d="M72.107 14.0011H68.1067C67.0014 14.0011 66.1057 13.1054 66.1057 12.0001C66.1057 10.8947 67.0014 9.99906 68.1067 9.99906H72.107V7.99805H68.1067C65.8978 7.99805 64.1064 9.78943 64.1064 11.9983C64.1064 14.2072 65.8978 15.9986 68.1067 15.9986H72.107V13.9976V14.0011Z" fill="#253746"/>
<path d="M45.5729 11.9624L44.7621 14.1904L43.9513 11.9641L42.5081 8.00195H40.3789L42.7732 14.5784L42.8044 14.6633C43.0348 15.2558 43.5251 15.7184 44.1366 15.9072C44.3341 15.9696 44.5438 16.0025 44.7621 16.0025C44.9804 16.0025 45.1883 15.9696 45.3858 15.909C45.9835 15.7236 46.4668 15.2766 46.7042 14.7032L46.7665 14.5334L49.1435 8.00369H47.0143L45.5729 11.9659V11.9624Z" fill="#253746"/>
<path d="M55.7152 12.0382L56.526 9.81022L57.3368 12.0364L58.7799 15.9986H60.9091L58.5148 9.42214L58.4837 9.33725C58.2532 8.74474 57.7629 8.28217 57.1514 8.09333C56.9539 8.03096 56.7442 7.99805 56.526 7.99805C56.3077 7.99805 56.0998 8.03096 55.9023 8.0916C55.3046 8.27698 54.8212 8.72395 54.5839 9.2974L54.5215 9.46719L52.1445 15.9969H54.2737L55.7152 12.0347V12.0382Z" fill="#253746"/>
<path d="M17.569 4.24113C17.569 4.53391 17.4408 4.79552 17.2399 4.97916C17.0614 5.14028 16.8258 5.24076 16.5659 5.23903C16.2905 5.23903 16.0393 5.12642 15.8591 4.94451C14.0538 3.13061 11.5556 2.00623 8.79404 1.9993C6.03248 1.99237 3.53078 3.10635 1.71688 4.91159C1.53497 5.09177 1.2855 5.20265 1.01003 5.20265C0.750162 5.20265 0.514545 5.10217 0.337833 4.93931C0.138598 4.75567 0.0121273 4.49407 0.0121273 4.20128C0.0121273 3.92582 0.124738 3.67461 0.306648 3.49443C2.48264 1.32884 5.48675 -0.00690307 8.79924 2.68342e-05C12.1117 0.00695673 15.1089 1.35655 17.2762 3.53254V3.53428C17.4564 3.71619 17.5673 3.96566 17.5656 4.24113H17.569ZM17.2295 19.0417C17.051 18.8788 16.8154 18.7801 16.5573 18.7801C16.2818 18.7801 16.0323 18.8927 15.8504 19.0728C14.04 20.8815 11.54 22.0007 8.77845 22.0007C6.01688 22.0007 3.51692 20.8815 1.70649 19.0711C1.52631 18.8909 1.2751 18.7783 0.999638 18.7783C0.739767 18.7783 0.50415 18.8788 0.327438 19.0399C0.126471 19.2236 0 19.4852 0 19.778C0 20.0482 0.107413 20.2942 0.282393 20.4744C0.285858 20.4779 0.289323 20.4813 0.292788 20.4848C0.296253 20.4883 0.299718 20.4917 0.304916 20.4969C2.47571 22.6625 5.47116 24 8.77845 24C12.0857 24 15.0795 22.6625 17.2503 20.4987C17.2554 20.4935 17.2589 20.49 17.2641 20.4848C17.2676 20.4813 17.2728 20.4761 17.2762 20.4727C17.4495 20.2925 17.5569 20.0482 17.5569 19.7797C17.5569 19.4869 17.4304 19.2236 17.2295 19.0417Z" fill="url(#paint0_linear_27729_16878)"/>
<defs>
<linearGradient id="paint0_linear_27729_16878" x1="0.291056" y1="20.4848" x2="17.2606" y2="3.51695" gradientUnits="userSpaceOnUse">
<stop stop-color="#187FC4"/>
<stop offset="1" stop-color="#07285A"/>
</linearGradient>
</defs>
</svg>
