<?xml version="1.0" encoding="UTF-8"?><svg id="Layer_1" xmlns="http://www.w3.org/2000/svg" viewBox="0 0 312.61 71.36"><defs><style>.cls-1{fill:#007cbd;}.cls-2{fill:#231f20;}.cls-3{fill:#54565a;}</style></defs><path class="cls-1" d="M54.66,9.54C48.69,3.46,40.7,.07,32.18,0h-.27C14.46,0,.15,14.19,0,31.64c-.15,17.59,14.05,32.03,31.64,32.18h.28c17.44,0,31.76-14.19,31.9-31.64,.07-8.52-3.18-16.57-9.15-22.64ZM31.91,60.3h-.25c-15.65-.14-28.27-12.98-28.14-28.63C3.66,16.15,16.39,3.52,31.89,3.52h.26c7.58,.07,14.69,3.08,20,8.49,5.32,5.41,8.21,12.56,8.14,20.14-.13,15.52-12.86,28.15-28.38,28.15Z"/><path class="cls-1" d="M32.13,5.84c-14.4-.12-26.17,11.45-26.29,25.85-.12,14.4,11.45,26.17,25.85,26.29,14.4,.12,26.17-11.45,26.29-25.85,.12-14.4-11.45-26.17-25.85-26.29Zm-.23,6.93h0c3.78,.04,7.15,1.14,9.48,3.1h0c1.19,1.04,1.32,2.85,.29,4.04-.5,.57-1.19,.92-1.95,.98-.76,.06-1.49-.18-2.06-.68l-.02-.02c-.86-.82-3.43-1.72-5.74-1.71-4.45,0-8.07,3.63-8.08,8.07,0,4.44,3.63,8.06,8.07,8.07,1.57,0,2.85,1.28,2.85,2.86s-1.28,2.86-2.86,2.86c-7.6,0-13.78-6.18-13.78-13.78,0-7.6,6.18-13.78,13.78-13.78Zm0,38.28h0c-3.79-.02-7.16-1.12-9.49-3.11h0c-1.19-1.04-1.31-2.84-.29-4.03,1.03-1.19,2.84-1.32,4.02-.3h.01c1.31,1.18,3.85,1.72,5.67,1.72h.08c4.44,0,8.06-3.63,8.07-8.07,0-4.44-3.63-8.06-8.07-8.07-1.57,0-2.85-1.28-2.85-2.86s1.28-2.86,2.86-2.86c7.6,0,13.78,6.19,13.78,13.78,0,7.6-6.18,13.78-13.78,13.78Z"/><g><path class="cls-3" d="M172.11,71.36c-1.42,0-3.05-.39-4.04-.97l.6-1.21c.79,.47,2.26,.89,3.41,.89,2.07,0,3.47-1.02,3.47-2.63,0-1.71-1.37-2.34-3.2-3.02-2.1-.79-3.91-1.65-3.91-4.1,0-2.05,1.63-3.65,4.49-3.65,1.5,0,2.84,.42,3.73,.97l-.6,1.16c-.66-.45-1.86-.87-3.02-.87-1.92,0-3.02,1.08-3.02,2.39,0,1.71,1.29,2.26,3.02,2.92,2.21,.84,4.12,1.65,4.12,4.23,0,2.34-1.92,3.89-5.04,3.89Z"/><path class="cls-3" d="M185.95,71.36c-3.83,0-5.83-3.18-5.83-7.35s2-7.33,5.83-7.33,5.83,3.15,5.83,7.33-2,7.35-5.83,7.35Zm0-13.39c-2.91,0-4.28,2.57-4.28,6.04s1.37,6.04,4.28,6.04,4.28-2.57,4.28-6.04-1.37-6.04-4.28-6.04Z"/><path class="cls-3" d="M201.11,51.77c-1.89,0-3.36,.97-3.36,3.13v2.05h3.31v1.18h-3.31v12.97h-1.5v-12.97h-2.1v-1.18h2.1v-2.05c0-2.97,2.1-4.44,4.67-4.44,.18,0,.34,.03,.39,.03v1.29h-.21Z"/><path class="cls-3" d="M208.78,71.23c-2.1,0-3.6-1.16-3.6-3.55v-9.56h-2.21v-1.18h2.21v-3.52l1.5-.58v4.1h3.2v1.18h-3.2v9.51c0,1.58,1.08,2.23,2.34,2.23,.32,0,.66-.05,.87-.13v1.34c-.24,.1-.6,.16-1.1,.16Z"/><path class="cls-3" d="M226.98,71.1h-1.58l-3.2-10.69c-.26-.87-.45-1.89-.45-1.89h-.05s-.18,1.02-.45,1.89l-3.2,10.69h-1.58l-4.39-14.16h1.55l3.15,10.64c.26,.89,.45,2.05,.45,2.05h.05s.24-1.16,.5-2.05l3.15-10.64h1.58l3.15,10.64c.26,.89,.5,2.05,.5,2.05h.05s.21-1.16,.47-2.05l3.13-10.64h1.55l-4.39,14.16Z"/><path class="cls-3" d="M239.17,71.36c-3.7,0-5.59-1.65-5.59-4.23,0-4.12,4.52-4.65,8.8-4.88v-1.23c0-2.39-1.6-3.1-3.7-3.1-1.31,0-2.89,.42-3.78,.89l-.47-1.16c1.02-.5,2.76-.97,4.36-.97,2.97,0,5.09,1.18,5.09,4.44v9.27c-.97,.55-2.94,.97-4.7,.97Zm3.2-7.93c-3.39,.18-7.3,.37-7.3,3.68,0,1.81,1.31,3.02,4.07,3.02,1.21,0,2.65-.24,3.23-.53v-6.17Z"/><path class="cls-3" d="M253.78,58.07c-.32-.05-.68-.08-1.05-.08-1.13,0-2.42,.21-3.15,.55v12.55h-1.55v-13.45c1.18-.58,3.13-.97,4.88-.97,.58,0,1.08,.03,1.21,.05l-.34,1.34Z"/><path class="cls-3" d="M267.51,63.38l-9.93,1.47c.21,3.47,2.15,5.23,5.15,5.23,1.42,0,2.94-.37,3.83-.89l.53,1.21c-.95,.55-2.63,.97-4.41,.97-4.04,0-6.59-2.55-6.59-7.35,0-4.36,2.28-7.33,5.99-7.33,3.28,0,5.46,2.13,5.46,5.86,0,.26,0,.53-.03,.84Zm-5.44-5.46c-2.78,0-4.49,2.29-4.57,5.75l8.53-1.23c-.03-3.07-1.6-4.52-3.97-4.52Z"/></g><path class="cls-2" d="M309.83,22.79c-1.55,0-2.78-1.24-2.78-2.77s1.23-2.77,2.78-2.77,2.78,1.24,2.78,2.77-1.23,2.77-2.78,2.77Zm0-5.16c-1.34,0-2.37,1.07-2.37,2.39s1.04,2.39,2.37,2.39,2.36-1.07,2.36-2.39-1.03-2.39-2.36-2.39Zm.86,3.92l-.57-1.09c-.11-.21-.25-.29-.52-.29h-.34v1.37h-.39v-3.02c.25-.12,.59-.17,.89-.17,.76,0,1.2,.33,1.2,.88,0,.46-.32,.72-.74,.81v.02c.11,.06,.2,.17,.28,.31l.64,1.18h-.45Zm-.92-2.85c-.19,0-.39,.02-.51,.06v1.09h.42c.58,0,.88-.16,.88-.6,0-.34-.25-.55-.79-.55Z"/><g><path class="cls-2" d="M83.77,46.35c-3.28,0-6.71-.88-8.74-1.98l1.92-4.37c1.46,.88,4.53,1.82,6.66,1.82,3.07,0,5.1-1.51,5.1-3.85,0-2.55-2.13-3.54-4.99-4.58-3.75-1.4-7.96-3.12-7.96-8.38,0-4.63,3.59-7.85,9.83-7.85,3.38,0,6.19,.83,8.17,1.98l-1.77,3.95c-1.25-.78-3.75-1.66-5.77-1.66-2.96,0-4.63,1.56-4.63,3.59,0,2.55,2.08,3.43,4.84,4.47,3.9,1.46,8.22,3.07,8.22,8.53,0,5.04-3.85,8.32-10.87,8.32Z"/><path class="cls-2" d="M102.44,12.64c-1.87,0-3.38-1.46-3.38-3.23s1.51-3.23,3.38-3.23,3.38,1.46,3.38,3.23-1.51,3.23-3.38,3.23Zm-2.86,33.13V17.74h5.72v28.04h-5.72Z"/><path class="cls-2" d="M128.09,45.78V27.05c0-3.28-1.98-5.31-5.88-5.31-2.08,0-4.01,.36-5.15,.83v23.2h-5.67V19.14c2.81-1.14,6.4-1.98,10.77-1.98,7.85,0,11.65,3.43,11.65,9.36v19.25h-5.72Z"/><path class="cls-2" d="M150.04,57.48c-4.11,0-7.65-.99-9.99-2.13l1.66-4.47c1.82,.99,4.79,1.77,7.8,1.77,4.63,0,6.87-2.44,6.87-6.97v-2.08c-1.46,.68-3.69,1.14-5.67,1.14-7.08,0-12.02-4.89-12.02-13.37,0-9.68,5.67-14.2,13.94-14.2,3.69,0,7.13,.83,9.36,1.98v26.53c0,7.65-4.58,11.81-11.96,11.81Zm6.35-35.16c-.88-.36-2.45-.73-4.16-.73-4.42,0-7.8,2.81-7.8,9.57,0,6.14,2.97,9.21,7.39,9.21,1.56,0,3.54-.42,4.58-.99V22.32Z"/><path class="cls-2" d="M168.1,45.78V4.94h5.72V45.78h-5.72Z"/><path class="cls-2" d="M203.05,31.63l-18.62,2.6c.57,5.05,3.85,7.59,8.58,7.59,2.81,0,5.83-.68,7.75-1.72l1.67,4.27c-2.18,1.14-5.93,1.98-9.78,1.98-8.84,0-13.79-5.67-13.79-14.62s4.79-14.56,12.64-14.56c7.28,0,11.6,4.79,11.6,12.33,0,.68,0,1.4-.05,2.13Zm-11.65-10.3c-4.37,0-7.23,3.33-7.33,9.16l13.58-1.87c-.05-4.89-2.5-7.28-6.24-7.28Z"/><path class="cls-2" d="M237.49,45.78h-5.88l-4.99-17.79c-.52-1.87-.83-4.06-.83-4.06h-.1s-.36,2.18-.88,4.06l-4.99,17.79h-5.88l-8.32-28.04h5.67l4.84,18.52c.52,1.98,.78,4.42,.78,4.42h.1s.42-2.44,.94-4.42l5.1-18.52h5.36l5.1,18.52c.52,1.98,.94,4.42,.94,4.42h.1s.26-2.44,.78-4.42l4.84-18.52h5.67l-8.32,28.04Z"/><path class="cls-2" d="M252.89,12.64c-1.87,0-3.38-1.46-3.38-3.23s1.51-3.23,3.38-3.23,3.38,1.46,3.38,3.23-1.51,3.23-3.38,3.23Zm-2.86,33.13V17.74h5.72v28.04h-5.72Z"/><path class="cls-2" d="M274.79,22.11c-.83-.21-1.82-.31-2.86-.31-1.61,0-3.33,.26-4.42,.73v23.25h-5.67V19.14c2.71-1.14,6.71-1.98,10.87-1.98,1.25,0,2.34,.05,3.17,.21l-1.09,4.73Z"/><path class="cls-2" d="M301.79,31.63l-18.62,2.6c.57,5.05,3.85,7.59,8.58,7.59,2.81,0,5.83-.68,7.75-1.72l1.67,4.27c-2.18,1.14-5.93,1.98-9.78,1.98-8.84,0-13.79-5.67-13.79-14.62s4.79-14.56,12.64-14.56c7.28,0,11.6,4.79,11.6,12.33,0,.68,0,1.4-.05,2.13Zm-11.65-10.3c-4.37,0-7.23,3.33-7.33,9.16l13.58-1.87c-.05-4.89-2.5-7.28-6.24-7.28Z"/></g></svg>