<?xml version="1.0" encoding="UTF-8" standalone="no"?>
<svg xmlns="http://www.w3.org/2000/svg" width="2048" height="450" viewBox="0 0 2048 450" version="1.1">
  <g fill="#FFFFFF" fill-rule="evenodd">
    <path d="M 1963,281 L 1961,283 L 1959,283 L 1956,285 L 1954,285 L 1952,287 L 1945,291 L 1941,295 L 1940,295 L 1940,296 L 1934,302 L 1934,303 L 1929,309 L 1929,311 L 1926,315 L 1926,317 L 1924,320 L 1924,323 L 1923,324 L 1923,327 L 1922,328 L 1922,331 L 1921,332 L 1921,355 L 1923,359 L 1923,362 L 1924,363 L 1925,369 L 1929,377 L 1934,383 L 1934,384 L 1948,397 L 1953,399 L 1957,402 L 1959,402 L 1965,405 L 1971,406 L 1972,407 L 1976,407 L 1977,408 L 1984,408 L 1985,409 L 2000,409 L 2001,408 L 2009,408 L 2010,407 L 2018,406 L 2019,405 L 2021,405 L 2022,404 L 2024,404 L 2027,402 L 2031,401 L 2033,399 L 2037,397 L 2040,394 L 2041,394 L 2047,388 L 2031,373 L 2030,373 L 2026,369 L 2025,369 L 2017,377 L 2007,382 L 2003,382 L 2002,383 L 1984,383 L 1983,382 L 1977,381 L 1968,376 L 1959,367 L 1959,366 L 1957,364 L 1954,358 L 1954,356 L 1953,355 L 1953,351 L 1952,350 L 1952,337 L 1953,336 L 1953,332 L 1954,331 L 1955,325 L 1960,318 L 1960,317 L 1968,309 L 1977,304 L 1980,304 L 1981,303 L 1986,303 L 1987,302 L 1996,302 L 1997,303 L 2003,303 L 2004,304 L 2007,304 L 2015,308 L 2024,316 L 2026,316 L 2035,308 L 2036,308 L 2040,304 L 2041,304 L 2046,299 L 2047,299 L 2047,297 L 2039,290 L 2038,290 L 2033,286 L 2027,283 L 2025,283 L 2022,281 L 2016,280 L 2015,279 L 2012,279 L 2011,278 L 2005,278 L 2004,277 L 1999,277 L 1998,276 L 1987,276 L 1986,277 L 1974,278 L 1973,279 L 1970,279 L 1969,280 Z M 1804,281 L 1794,286 L 1792,288 L 1789,289 L 1777,300 L 1777,301 L 1773,305 L 1772,308 L 1770,310 L 1766,318 L 1766,320 L 1764,323 L 1764,326 L 1763,327 L 1763,332 L 1762,333 L 1762,353 L 1763,354 L 1763,359 L 1764,360 L 1764,363 L 1766,366 L 1766,368 L 1768,371 L 1768,373 L 1773,380 L 1774,383 L 1785,394 L 1786,394 L 1792,399 L 1800,403 L 1802,403 L 1805,405 L 1811,406 L 1812,407 L 1816,407 L 1817,408 L 1824,408 L 1825,409 L 1841,409 L 1842,408 L 1850,408 L 1851,407 L 1855,407 L 1856,406 L 1859,406 L 1860,405 L 1865,404 L 1879,397 L 1888,389 L 1889,389 L 1892,386 L 1892,385 L 1895,382 L 1895,381 L 1894,381 L 1891,378 L 1888,377 L 1884,373 L 1881,372 L 1875,367 L 1872,366 L 1871,368 L 1866,373 L 1865,373 L 1861,377 L 1860,377 L 1853,382 L 1851,382 L 1847,384 L 1842,384 L 1841,385 L 1831,385 L 1830,384 L 1825,384 L 1824,383 L 1821,383 L 1820,382 L 1815,381 L 1809,378 L 1806,375 L 1805,375 L 1797,366 L 1794,360 L 1793,354 L 1794,353 L 1900,353 L 1900,330 L 1899,329 L 1899,325 L 1897,321 L 1896,315 L 1891,305 L 1886,299 L 1886,298 L 1878,290 L 1877,290 L 1872,286 L 1865,283 L 1863,281 L 1861,281 L 1857,279 L 1854,279 L 1853,278 L 1848,278 L 1847,277 L 1843,277 L 1842,276 L 1825,276 L 1824,277 L 1814,278 L 1813,279 L 1810,279 L 1809,280 Z M 1793,327 L 1798,316 L 1808,306 L 1815,302 L 1817,302 L 1820,300 L 1824,300 L 1825,299 L 1841,299 L 1842,300 L 1846,300 L 1849,302 L 1853,303 L 1855,305 L 1856,305 L 1864,313 L 1864,314 L 1866,316 L 1866,318 L 1867,319 L 1867,321 L 1869,325 L 1869,329 L 1868,330 L 1794,330 L 1793,329 Z M 1620,287 L 1606,279 L 1601,278 L 1598,276 L 1590,275 L 1589,274 L 1577,274 L 1576,273 L 1574,273 L 1573,274 L 1563,274 L 1562,275 L 1554,276 L 1551,278 L 1549,278 L 1548,279 L 1546,279 L 1542,281 L 1540,283 L 1537,284 L 1533,288 L 1531,289 L 1530,288 L 1530,277 L 1529,276 L 1501,276 L 1500,277 L 1500,449 L 1530,449 L 1530,391 L 1531,390 L 1538,396 L 1550,402 L 1553,402 L 1554,403 L 1557,403 L 1558,404 L 1561,404 L 1562,405 L 1566,405 L 1567,406 L 1583,406 L 1584,405 L 1589,405 L 1590,404 L 1598,403 L 1599,402 L 1604,401 L 1609,398 L 1611,398 L 1613,396 L 1619,393 L 1623,389 L 1624,389 L 1634,378 L 1636,373 L 1639,369 L 1639,367 L 1641,364 L 1641,361 L 1643,358 L 1643,355 L 1644,354 L 1644,347 L 1645,346 L 1645,333 L 1644,332 L 1644,326 L 1643,325 L 1643,321 L 1641,318 L 1640,313 L 1635,303 L 1625,292 L 1625,291 L 1624,291 Z M 1547,305 L 1551,303 L 1553,303 L 1556,301 L 1558,301 L 1559,300 L 1563,300 L 1564,299 L 1579,299 L 1580,300 L 1585,300 L 1588,302 L 1590,302 L 1596,305 L 1605,313 L 1605,314 L 1608,317 L 1611,323 L 1612,328 L 1613,329 L 1613,332 L 1614,333 L 1614,346 L 1613,347 L 1613,350 L 1612,351 L 1611,356 L 1609,359 L 1609,361 L 1599,372 L 1598,372 L 1593,376 L 1591,376 L 1588,378 L 1585,378 L 1584,379 L 1580,379 L 1579,380 L 1564,380 L 1563,379 L 1559,379 L 1558,378 L 1556,378 L 1555,377 L 1553,377 L 1549,375 L 1547,373 L 1544,372 L 1537,365 L 1536,362 L 1534,360 L 1532,356 L 1531,350 L 1530,349 L 1530,331 L 1531,330 L 1531,326 L 1536,316 L 1538,314 L 1538,313 Z M 1446,286 L 1440,283 L 1438,281 L 1436,281 L 1431,278 L 1429,278 L 1425,276 L 1417,275 L 1416,274 L 1404,274 L 1403,273 L 1401,273 L 1400,274 L 1390,274 L 1389,275 L 1385,275 L 1384,276 L 1381,276 L 1378,278 L 1376,278 L 1373,280 L 1371,280 L 1364,285 L 1363,285 L 1357,291 L 1356,290 L 1356,276 L 1328,276 L 1327,277 L 1327,449 L 1356,449 L 1356,390 L 1357,389 L 1358,389 L 1360,392 L 1361,392 L 1367,397 L 1375,401 L 1377,401 L 1381,403 L 1384,403 L 1385,404 L 1388,404 L 1389,405 L 1393,405 L 1394,406 L 1411,406 L 1412,405 L 1417,405 L 1418,404 L 1421,404 L 1422,403 L 1429,402 L 1436,398 L 1440,397 L 1442,395 L 1449,391 L 1449,390 L 1451,389 L 1461,378 L 1467,367 L 1467,365 L 1469,362 L 1469,359 L 1471,355 L 1471,350 L 1472,349 L 1472,330 L 1471,329 L 1471,325 L 1469,321 L 1469,318 L 1468,317 L 1467,312 L 1464,308 L 1462,303 L 1457,297 L 1457,296 Z M 1376,304 L 1380,303 L 1383,301 L 1385,301 L 1386,300 L 1390,300 L 1391,299 L 1407,299 L 1408,300 L 1412,300 L 1415,302 L 1417,302 L 1423,305 L 1425,307 L 1426,307 L 1434,315 L 1435,318 L 1438,322 L 1438,324 L 1440,328 L 1440,333 L 1441,334 L 1441,345 L 1440,346 L 1440,351 L 1439,352 L 1439,354 L 1438,355 L 1437,359 L 1435,361 L 1434,364 L 1426,372 L 1425,372 L 1418,377 L 1412,378 L 1411,379 L 1407,379 L 1406,380 L 1391,380 L 1390,379 L 1386,379 L 1385,378 L 1383,378 L 1382,377 L 1378,376 L 1376,374 L 1373,373 L 1365,366 L 1365,365 L 1361,360 L 1361,358 L 1359,355 L 1358,349 L 1357,348 L 1357,342 L 1356,341 L 1356,338 L 1357,337 L 1357,332 L 1358,331 L 1358,327 L 1359,326 L 1359,324 L 1363,316 L 1373,306 L 1374,306 Z M 1635,233 L 1635,258 L 1692,258 L 1693,259 L 1693,406 L 1721,406 L 1721,259 L 1722,258 L 1778,258 L 1778,233 Z M 1208,233 L 1197,254 L 1196,258 L 1194,260 L 1194,262 L 1187,275 L 1187,277 L 1185,279 L 1183,283 L 1183,285 L 1172,306 L 1172,308 L 1170,310 L 1168,314 L 1168,316 L 1158,335 L 1158,337 L 1154,343 L 1154,345 L 1143,366 L 1143,368 L 1141,370 L 1139,374 L 1139,376 L 1124,406 L 1158,406 L 1159,402 L 1163,395 L 1163,393 L 1165,390 L 1165,388 L 1167,386 L 1167,384 L 1169,381 L 1169,379 L 1173,372 L 1173,370 L 1176,364 L 1261,364 L 1263,366 L 1263,368 L 1265,370 L 1265,372 L 1267,375 L 1267,377 L 1276,395 L 1276,397 L 1278,400 L 1278,402 L 1280,404 L 1280,406 L 1314,406 L 1306,390 L 1306,388 L 1297,371 L 1297,369 L 1291,358 L 1291,356 L 1288,352 L 1288,350 L 1282,339 L 1282,337 L 1276,326 L 1276,324 L 1273,320 L 1273,318 L 1267,307 L 1267,305 L 1261,294 L 1261,292 L 1258,288 L 1258,286 L 1252,275 L 1252,273 L 1246,262 L 1246,260 L 1243,256 L 1243,254 L 1237,243 L 1237,241 L 1233,233 Z M 1219,269 L 1222,274 L 1222,276 L 1224,279 L 1224,281 L 1226,283 L 1226,285 L 1233,299 L 1233,301 L 1237,308 L 1237,310 L 1241,317 L 1241,319 L 1246,328 L 1246,330 L 1248,333 L 1248,335 L 1250,339 L 1249,340 L 1188,340 L 1187,339 L 1189,336 L 1189,334 L 1193,327 L 1193,325 L 1198,316 L 1198,314 L 1203,305 L 1203,303 L 1208,294 L 1208,292 L 1212,285 L 1212,283 Z M 1391,53 L 1391,147 L 1392,148 L 1392,151 L 1393,152 L 1393,156 L 1394,157 L 1394,159 L 1398,167 L 1404,174 L 1404,175 L 1406,176 L 1410,180 L 1413,181 L 1415,183 L 1419,185 L 1424,186 L 1425,187 L 1429,187 L 1430,188 L 1434,188 L 1435,189 L 1454,189 L 1455,188 L 1463,187 L 1464,186 L 1469,185 L 1479,180 L 1482,177 L 1483,177 L 1488,172 L 1489,170 L 1490,171 L 1490,186 L 1519,186 L 1520,185 L 1520,53 L 1490,53 L 1490,129 L 1489,130 L 1489,135 L 1488,136 L 1488,139 L 1483,149 L 1475,157 L 1468,161 L 1466,161 L 1465,162 L 1461,162 L 1460,163 L 1444,163 L 1443,162 L 1437,161 L 1432,157 L 1431,157 L 1427,153 L 1422,144 L 1421,136 L 1420,135 L 1420,53 Z M 1718,50 L 1718,188 L 1747,188 L 1747,51 L 1746,50 Z M 1540,17 L 1542,21 L 1546,25 L 1547,28 L 1551,32 L 1553,36 L 1556,39 L 1556,40 L 1561,46 L 1563,50 L 1566,53 L 1568,57 L 1574,64 L 1574,65 L 1579,71 L 1581,75 L 1585,79 L 1586,82 L 1590,86 L 1592,90 L 1595,93 L 1598,99 L 1596,101 L 1594,105 L 1591,108 L 1589,112 L 1586,115 L 1584,119 L 1581,122 L 1580,125 L 1577,128 L 1575,132 L 1572,135 L 1570,139 L 1567,142 L 1565,146 L 1557,156 L 1556,159 L 1553,162 L 1551,166 L 1548,169 L 1546,173 L 1543,176 L 1543,177 L 1535,188 L 1570,188 L 1572,186 L 1572,185 L 1576,180 L 1577,177 L 1580,174 L 1580,173 L 1582,171 L 1586,164 L 1589,161 L 1590,158 L 1595,152 L 1595,151 L 1597,149 L 1597,148 L 1599,146 L 1599,145 L 1601,143 L 1601,142 L 1603,140 L 1607,133 L 1610,130 L 1611,127 L 1614,124 L 1614,123 L 1617,119 L 1619,120 L 1620,123 L 1623,126 L 1623,127 L 1625,129 L 1625,130 L 1627,132 L 1627,133 L 1629,135 L 1629,136 L 1631,138 L 1631,139 L 1633,141 L 1633,142 L 1635,144 L 1635,145 L 1637,147 L 1641,154 L 1644,157 L 1645,160 L 1648,163 L 1649,166 L 1652,169 L 1652,170 L 1654,172 L 1654,173 L 1656,175 L 1656,176 L 1658,178 L 1658,179 L 1660,181 L 1664,188 L 1701,188 L 1698,184 L 1698,183 L 1695,180 L 1693,176 L 1690,173 L 1688,169 L 1685,166 L 1684,163 L 1680,159 L 1679,156 L 1676,153 L 1674,149 L 1671,146 L 1669,142 L 1666,139 L 1664,135 L 1661,132 L 1659,128 L 1656,125 L 1654,121 L 1651,118 L 1649,114 L 1646,111 L 1644,107 L 1641,104 L 1641,103 L 1637,98 L 1639,96 L 1641,92 L 1644,89 L 1646,85 L 1649,82 L 1651,78 L 1654,75 L 1656,71 L 1660,67 L 1664,60 L 1673,49 L 1674,46 L 1683,35 L 1683,34 L 1688,28 L 1690,24 L 1693,21 L 1695,17 L 1660,17 L 1656,22 L 1653,28 L 1650,31 L 1650,32 L 1648,34 L 1644,41 L 1641,44 L 1640,47 L 1637,50 L 1634,56 L 1631,59 L 1627,66 L 1624,69 L 1624,70 L 1618,78 L 1616,76 L 1615,73 L 1612,70 L 1610,66 L 1607,63 L 1605,59 L 1602,56 L 1601,53 L 1596,47 L 1596,46 L 1594,44 L 1590,37 L 1587,34 L 1587,33 L 1585,31 L 1585,30 L 1583,28 L 1579,21 L 1576,18 L 1576,17 Z M 1126,17 L 1128,20 L 1130,28 L 1133,33 L 1135,41 L 1137,44 L 1138,49 L 1140,52 L 1141,57 L 1143,60 L 1145,68 L 1148,73 L 1150,81 L 1153,86 L 1155,94 L 1157,97 L 1158,102 L 1162,110 L 1164,118 L 1167,123 L 1167,125 L 1168,126 L 1170,134 L 1173,139 L 1175,147 L 1177,150 L 1178,155 L 1182,163 L 1184,171 L 1187,176 L 1187,178 L 1188,179 L 1188,181 L 1189,182 L 1189,184 L 1191,188 L 1199,188 L 1202,183 L 1204,175 L 1206,173 L 1206,171 L 1207,170 L 1209,162 L 1212,157 L 1214,149 L 1216,147 L 1216,145 L 1217,144 L 1218,139 L 1221,134 L 1221,132 L 1222,131 L 1224,123 L 1226,121 L 1226,119 L 1227,118 L 1229,110 L 1231,108 L 1233,100 L 1236,95 L 1238,87 L 1241,82 L 1243,74 L 1246,69 L 1248,61 L 1250,58 L 1253,64 L 1253,66 L 1257,73 L 1257,75 L 1260,80 L 1260,82 L 1262,85 L 1262,87 L 1266,94 L 1266,96 L 1271,106 L 1271,108 L 1275,115 L 1275,117 L 1277,120 L 1277,122 L 1281,129 L 1281,131 L 1286,141 L 1286,143 L 1288,146 L 1288,148 L 1290,150 L 1290,152 L 1295,162 L 1295,164 L 1298,169 L 1298,171 L 1301,176 L 1301,178 L 1304,183 L 1304,185 L 1306,188 L 1314,188 L 1314,186 L 1315,185 L 1317,177 L 1319,174 L 1319,172 L 1320,171 L 1320,169 L 1322,165 L 1322,162 L 1325,157 L 1325,154 L 1326,153 L 1327,148 L 1329,145 L 1329,143 L 1330,142 L 1332,134 L 1334,131 L 1334,129 L 1335,128 L 1335,126 L 1337,122 L 1337,119 L 1339,117 L 1342,105 L 1344,102 L 1344,100 L 1345,99 L 1347,91 L 1349,88 L 1349,86 L 1350,85 L 1352,77 L 1354,74 L 1354,71 L 1355,70 L 1356,65 L 1358,62 L 1358,60 L 1359,59 L 1361,51 L 1363,48 L 1363,46 L 1364,45 L 1364,43 L 1365,42 L 1365,40 L 1366,39 L 1368,31 L 1370,28 L 1370,25 L 1373,19 L 1373,17 L 1343,17 L 1342,18 L 1342,20 L 1341,21 L 1339,29 L 1336,35 L 1336,38 L 1335,39 L 1334,44 L 1332,47 L 1332,49 L 1330,53 L 1329,59 L 1327,62 L 1327,64 L 1326,65 L 1326,67 L 1325,68 L 1325,70 L 1324,71 L 1324,73 L 1323,74 L 1323,76 L 1322,77 L 1322,79 L 1321,80 L 1319,88 L 1316,94 L 1316,97 L 1315,98 L 1314,103 L 1312,106 L 1312,108 L 1310,112 L 1310,115 L 1307,121 L 1306,120 L 1305,115 L 1302,110 L 1302,108 L 1299,102 L 1299,100 L 1297,97 L 1297,95 L 1295,92 L 1295,90 L 1292,85 L 1292,83 L 1291,82 L 1290,77 L 1287,72 L 1286,67 L 1281,57 L 1280,52 L 1277,47 L 1276,42 L 1273,37 L 1272,32 L 1270,29 L 1270,27 L 1268,24 L 1268,22 L 1266,19 L 1266,17 L 1234,17 L 1233,21 L 1232,22 L 1232,24 L 1231,25 L 1231,27 L 1228,32 L 1226,40 L 1222,48 L 1222,51 L 1219,56 L 1219,58 L 1218,59 L 1216,67 L 1212,75 L 1211,80 L 1209,83 L 1207,91 L 1203,99 L 1201,107 L 1199,110 L 1199,112 L 1198,113 L 1198,115 L 1196,119 L 1194,117 L 1192,109 L 1189,104 L 1189,102 L 1188,101 L 1187,96 L 1185,93 L 1183,85 L 1179,77 L 1177,69 L 1174,64 L 1172,56 L 1170,53 L 1168,45 L 1165,40 L 1165,38 L 1164,37 L 1162,29 L 1160,26 L 1160,24 L 1159,23 L 1159,21 L 1157,17 Z M 306,21 L 306,23 L 310,31 L 312,33 L 314,38 L 316,40 L 317,43 L 322,50 L 329,64 L 333,69 L 340,83 L 342,85 L 344,90 L 346,92 L 347,95 L 352,102 L 355,109 L 357,111 L 359,116 L 361,118 L 362,121 L 367,128 L 369,133 L 371,135 L 374,142 L 376,144 L 377,147 L 382,154 L 384,159 L 386,161 L 392,173 L 396,178 L 399,185 L 401,187 L 403,192 L 405,194 L 408,201 L 411,204 L 414,211 L 416,213 L 422,225 L 424,227 L 425,230 L 430,237 L 437,251 L 439,253 L 440,256 L 445,263 L 448,270 L 450,272 L 456,284 L 460,289 L 463,296 L 465,298 L 471,310 L 475,315 L 478,322 L 480,324 L 482,329 L 484,331 L 485,334 L 490,341 L 497,355 L 499,357 L 501,362 L 503,364 L 504,367 L 509,374 L 516,388 L 520,393 L 522,398 L 524,400 L 530,412 L 535,419 L 537,424 L 539,426 L 545,438 L 550,444 L 554,444 L 557,442 L 558,439 L 563,432 L 566,425 L 568,423 L 570,418 L 572,416 L 573,413 L 578,406 L 580,401 L 582,399 L 585,392 L 587,390 L 588,387 L 593,380 L 595,375 L 597,373 L 604,359 L 608,354 L 615,340 L 617,338 L 618,335 L 623,328 L 625,323 L 627,321 L 629,316 L 631,314 L 634,307 L 638,302 L 644,290 L 649,283 L 651,285 L 658,299 L 660,301 L 661,304 L 666,311 L 669,318 L 671,320 L 677,332 L 682,339 L 684,344 L 686,346 L 692,358 L 694,360 L 695,363 L 700,370 L 707,384 L 709,386 L 710,389 L 715,396 L 718,403 L 720,405 L 721,408 L 726,415 L 728,420 L 730,422 L 733,429 L 735,431 L 740,441 L 744,444 L 747,444 L 749,443 L 751,441 L 753,436 L 755,434 L 757,429 L 759,427 L 762,420 L 764,418 L 765,415 L 770,408 L 772,403 L 774,401 L 780,389 L 784,384 L 787,377 L 789,375 L 791,370 L 793,368 L 794,365 L 799,358 L 802,351 L 804,349 L 810,337 L 812,335 L 813,332 L 818,325 L 821,318 L 823,316 L 825,311 L 827,309 L 828,306 L 833,299 L 840,285 L 844,280 L 846,275 L 848,273 L 855,259 L 859,254 L 859,252 L 863,247 L 870,233 L 872,231 L 873,228 L 878,221 L 885,207 L 887,205 L 888,202 L 893,195 L 895,190 L 897,188 L 899,183 L 901,181 L 904,174 L 908,169 L 910,164 L 912,162 L 918,150 L 923,143 L 925,138 L 927,136 L 933,124 L 935,122 L 936,119 L 941,112 L 948,98 L 952,93 L 954,88 L 956,86 L 959,79 L 961,77 L 967,65 L 971,60 L 978,46 L 980,44 L 981,41 L 983,39 L 984,36 L 986,34 L 988,29 L 991,25 L 991,19 L 988,17 L 748,17 L 743,20 L 740,27 L 738,29 L 737,32 L 732,39 L 725,53 L 721,58 L 719,63 L 717,65 L 711,77 L 706,84 L 704,89 L 702,91 L 700,96 L 698,98 L 692,110 L 687,117 L 685,122 L 683,124 L 677,136 L 675,138 L 670,148 L 668,150 L 666,155 L 664,157 L 661,164 L 659,166 L 658,169 L 653,176 L 651,181 L 649,183 L 647,181 L 642,171 L 640,169 L 639,166 L 634,159 L 627,145 L 620,135 L 617,128 L 615,126 L 609,114 L 604,107 L 597,93 L 595,91 L 594,88 L 589,81 L 587,76 L 585,74 L 579,62 L 574,55 L 572,50 L 570,48 L 564,36 L 560,31 L 555,21 L 550,17 L 309,17 Z M 795,27 L 796,28 L 794,32 L 792,34 L 791,37 L 786,44 L 779,58 L 772,68 L 769,75 L 767,77 L 765,82 L 763,84 L 762,87 L 757,94 L 755,99 L 753,101 L 751,106 L 746,113 L 744,118 L 742,120 L 740,125 L 738,127 L 735,134 L 732,137 L 725,151 L 723,153 L 722,156 L 717,163 L 715,168 L 713,170 L 711,175 L 706,182 L 706,184 L 702,189 L 700,194 L 698,196 L 692,208 L 687,215 L 681,227 L 677,232 L 674,228 L 673,225 L 671,223 L 670,220 L 668,218 L 666,213 L 664,211 L 657,197 L 655,195 L 659,186 L 663,181 L 665,176 L 667,174 L 669,169 L 671,167 L 677,155 L 682,148 L 684,143 L 686,141 L 688,136 L 690,134 L 692,129 L 697,122 L 699,117 L 701,115 L 703,110 L 705,108 L 708,101 L 712,96 L 714,91 L 716,89 L 718,84 L 720,82 L 723,75 L 725,73 L 726,70 L 731,63 L 733,58 L 735,56 L 737,51 L 739,49 L 740,46 L 745,39 L 750,29 L 752,27 Z M 514,28 L 515,27 L 546,27 L 548,29 L 551,36 L 555,41 L 555,43 L 558,46 L 561,53 L 563,55 L 565,60 L 567,62 L 570,69 L 574,74 L 576,79 L 578,81 L 584,93 L 586,95 L 587,98 L 592,105 L 599,119 L 601,121 L 602,124 L 607,131 L 610,138 L 612,140 L 618,152 L 622,157 L 629,171 L 631,173 L 632,176 L 637,183 L 644,197 L 646,199 L 647,202 L 652,209 L 659,223 L 661,225 L 663,230 L 666,233 L 666,235 L 668,237 L 674,249 L 677,253 L 680,249 L 681,246 L 683,244 L 684,241 L 686,239 L 688,234 L 690,232 L 695,222 L 697,220 L 699,215 L 701,213 L 703,208 L 705,206 L 708,199 L 711,196 L 718,182 L 720,180 L 725,170 L 730,163 L 732,158 L 734,156 L 737,149 L 741,144 L 743,139 L 745,137 L 751,125 L 753,123 L 754,120 L 759,113 L 762,106 L 764,104 L 766,99 L 770,94 L 772,89 L 774,87 L 777,80 L 779,78 L 780,75 L 785,68 L 791,56 L 793,54 L 794,51 L 799,44 L 806,30 L 809,27 L 976,27 L 977,28 L 975,32 L 973,34 L 971,39 L 969,41 L 966,48 L 964,50 L 963,53 L 958,60 L 956,65 L 954,67 L 951,74 L 947,79 L 945,84 L 943,86 L 941,91 L 939,93 L 936,100 L 934,102 L 933,105 L 928,112 L 926,117 L 924,119 L 918,131 L 913,138 L 911,143 L 909,145 L 907,150 L 905,152 L 902,159 L 900,161 L 899,164 L 894,171 L 892,176 L 890,178 L 888,183 L 886,185 L 885,188 L 880,195 L 873,209 L 871,211 L 870,214 L 865,221 L 862,228 L 860,230 L 854,242 L 852,244 L 851,247 L 846,254 L 839,268 L 835,273 L 828,287 L 826,289 L 825,292 L 820,299 L 813,313 L 811,315 L 810,318 L 805,325 L 803,330 L 801,332 L 799,337 L 797,339 L 794,346 L 792,348 L 791,351 L 786,358 L 779,372 L 775,377 L 773,382 L 771,384 L 769,389 L 767,391 L 765,396 L 763,398 L 762,401 L 757,408 L 754,415 L 752,417 L 750,422 L 748,424 L 746,428 L 745,428 L 742,424 L 740,419 L 738,417 L 731,403 L 728,400 L 725,393 L 723,391 L 716,377 L 712,372 L 705,358 L 703,356 L 702,353 L 697,346 L 695,341 L 693,339 L 691,334 L 689,332 L 686,325 L 684,323 L 683,320 L 678,313 L 676,308 L 674,306 L 671,299 L 664,289 L 657,275 L 655,273 L 654,270 L 649,263 L 646,256 L 644,254 L 638,242 L 634,237 L 631,230 L 629,228 L 623,216 L 621,214 L 620,211 L 615,204 L 608,190 L 604,185 L 602,180 L 600,178 L 593,164 L 589,159 L 587,154 L 585,152 L 578,138 L 576,136 L 575,133 L 570,126 L 563,112 L 561,110 L 560,107 L 555,100 L 553,95 L 551,93 L 545,81 L 541,76 L 538,69 L 536,67 L 534,62 L 532,60 L 530,55 L 525,48 L 523,43 L 521,41 L 519,36 L 517,34 Z M 1,18 L 0,20 L 0,24 L 3,28 L 6,35 L 8,37 L 10,42 L 12,44 L 14,49 L 18,54 L 25,68 L 27,70 L 28,73 L 33,80 L 36,87 L 38,89 L 44,101 L 48,106 L 50,111 L 52,113 L 59,127 L 62,130 L 62,132 L 67,139 L 74,153 L 78,158 L 80,163 L 82,165 L 84,170 L 86,172 L 89,179 L 93,184 L 95,189 L 97,191 L 99,196 L 101,198 L 104,205 L 106,207 L 107,210 L 112,217 L 114,222 L 116,224 L 122,236 L 126,241 L 129,248 L 131,250 L 137,262 L 141,267 L 144,274 L 146,276 L 152,288 L 154,290 L 155,293 L 160,300 L 167,314 L 169,316 L 170,319 L 175,326 L 182,340 L 186,345 L 186,347 L 190,352 L 193,359 L 195,361 L 201,373 L 205,378 L 212,392 L 214,394 L 215,397 L 220,404 L 222,409 L 224,411 L 227,418 L 229,420 L 230,423 L 235,430 L 241,442 L 244,444 L 248,444 L 250,443 L 255,433 L 257,431 L 262,421 L 264,419 L 266,414 L 271,407 L 271,405 L 274,402 L 276,397 L 278,395 L 285,381 L 287,379 L 288,376 L 293,369 L 296,362 L 298,360 L 300,355 L 302,353 L 303,350 L 308,343 L 310,338 L 312,336 L 315,329 L 317,327 L 318,324 L 323,317 L 330,303 L 334,298 L 336,293 L 338,291 L 340,286 L 342,284 L 345,277 L 347,275 L 348,272 L 353,265 L 355,260 L 357,258 L 359,253 L 361,251 L 363,246 L 369,237 L 369,230 L 366,224 L 364,222 L 362,217 L 360,215 L 357,208 L 353,203 L 351,198 L 349,196 L 347,191 L 345,189 L 342,182 L 340,180 L 339,177 L 334,170 L 332,165 L 330,163 L 327,156 L 320,146 L 313,132 L 311,130 L 310,127 L 305,120 L 302,113 L 300,111 L 294,99 L 292,97 L 291,94 L 286,87 L 279,73 L 277,71 L 276,68 L 271,61 L 264,47 L 260,42 L 258,37 L 256,35 L 249,21 L 244,17 L 3,17 Z M 1727,0 L 1723,3 L 1722,3 L 1718,7 L 1717,11 L 1716,12 L 1716,14 L 1715,15 L 1715,19 L 1716,20 L 1717,25 L 1719,27 L 1719,28 L 1725,33 L 1727,33 L 1728,34 L 1736,34 L 1744,30 L 1748,25 L 1748,23 L 1749,22 L 1749,12 L 1748,11 L 1747,7 L 1740,1 L 1738,1 L 1737,0 Z"/>
  </g>
</svg>
